<svg width="302" height="302" viewBox="0 0 302 302" fill="none" xmlns="http://www.w3.org/2000/svg">
<mask id="path-1-inside-1_6_42" fill="white">
<path fill-rule="evenodd" clip-rule="evenodd" d="M150.892 301.783C234.227 301.783 301.783 234.227 301.783 150.892C301.783 67.5565 234.227 0 150.892 0C67.5565 0 0 67.5565 0 150.892C0 234.227 67.5565 301.783 150.892 301.783ZM150.892 280.341C222.384 280.341 280.341 222.384 280.341 150.892C280.341 79.3988 222.384 21.4425 150.892 21.4425C79.3988 21.4425 21.4425 79.3988 21.4425 150.892C21.4425 222.384 79.3988 280.341 150.892 280.341Z"/>
</mask>
<path fill-rule="evenodd" clip-rule="evenodd" d="M150.892 301.783C234.227 301.783 301.783 234.227 301.783 150.892C301.783 67.5565 234.227 0 150.892 0C67.5565 0 0 67.5565 0 150.892C0 234.227 67.5565 301.783 150.892 301.783ZM150.892 280.341C222.384 280.341 280.341 222.384 280.341 150.892C280.341 79.3988 222.384 21.4425 150.892 21.4425C79.3988 21.4425 21.4425 79.3988 21.4425 150.892C21.4425 222.384 79.3988 280.341 150.892 280.341Z" fill="#FAFAFA"/>
<path d="M300.783 150.892C300.783 233.674 233.674 300.783 150.892 300.783V302.783C234.779 302.783 302.783 234.779 302.783 150.892H300.783ZM150.892 1C233.674 1 300.783 68.1087 300.783 150.892H302.783C302.783 67.0042 234.779 -1 150.892 -1V1ZM1 150.892C1 68.1087 68.1087 1 150.892 1V-1C67.0042 -1 -1 67.0042 -1 150.892H1ZM150.892 300.783C68.1087 300.783 1 233.674 1 150.892H-1C-1 234.779 67.0042 302.783 150.892 302.783V300.783ZM279.341 150.892C279.341 221.832 221.832 279.341 150.892 279.341V281.341C222.937 281.341 281.341 222.937 281.341 150.892H279.341ZM150.892 22.4425C221.832 22.4425 279.341 79.9511 279.341 150.892H281.341C281.341 78.8465 222.937 20.4425 150.892 20.4425V22.4425ZM22.4425 150.892C22.4425 79.9511 79.9511 22.4425 150.892 22.4425V20.4425C78.8465 20.4425 20.4425 78.8465 20.4425 150.892H22.4425ZM150.892 279.341C79.9511 279.341 22.4425 221.832 22.4425 150.892H20.4425C20.4425 222.937 78.8465 281.341 150.892 281.341V279.341Z" fill="#BABABA" mask="url(#path-1-inside-1_6_42)"/>
</svg>
